<svg xmlns="http://www.w3.org/2000/svg" xmlns:xlink="http://www.w3.org/1999/xlink" width="1920" zoomAndPan="magnify" viewBox="0 0 1440 809.999993" height="1080" preserveAspectRatio="xMidYMid meet" version="1.0"><defs><filter x="0%" y="0%" width="100%" height="100%" id="b76f534ddd"><feColorMatrix values="0 0 0 0 1 0 0 0 0 1 0 0 0 0 1 0 0 0 1 0" color-interpolation-filters="sRGB"/></filter><clipPath id="648c77bf2d"><path d="M 513.75 198.75 L 926.25 198.75 L 926.25 611.25 L 513.75 611.25 Z M 513.75 198.75 " clip-rule="nonzero"/></clipPath><clipPath id="11899427bf"><path d="M 818.4375 305.53125 L 818.796875 305.53125 L 818.796875 305.863281 L 818.4375 305.863281 Z M 818.4375 305.53125 " clip-rule="nonzero"/></clipPath><clipPath id="dd44b3334a"><path d="M 818.773438 305.773438 C 818.101562 306 818.699219 305.550781 818.699219 305.550781 " clip-rule="nonzero"/></clipPath><mask id="10e4cf4543"><g filter="url(#b76f534ddd)"><rect x="-144" width="1728" fill="#000000" y="-80.999999" height="971.999992" fill-opacity="0.01"/></g></mask><clipPath id="01e2480efd"><path d="M 0.4375 0.53125 L 0.796875 0.53125 L 0.796875 0.863281 L 0.4375 0.863281 Z M 0.4375 0.53125 " clip-rule="nonzero"/></clipPath><clipPath id="44bb8452a7"><path d="M 0.773438 0.773438 C 0.101562 1 0.699219 0.550781 0.699219 0.550781 " clip-rule="nonzero"/></clipPath><clipPath id="3c44ef31ff"><rect x="0" width="1" y="0" height="1"/></clipPath></defs><g clip-path="url(#648c77bf2d)"><path fill="#2d2d2d" d="M 518.582031 610.992188 C 519.226562 611.25 519.871094 611.25 520.515625 611.25 C 523.222656 611.25 525.800781 609.574219 526.699219 606.738281 L 572.578125 463.957031 L 591.648438 463.957031 L 637.527344 606.738281 C 638.429688 609.445312 640.875 611.25 643.710938 611.25 C 646.546875 611.25 645 611.25 645.644531 610.992188 C 648.996094 609.960938 650.929688 606.222656 649.769531 602.875 L 605.179688 464.085938 L 643.710938 464.085938 C 647.320312 464.085938 650.15625 461.25 650.15625 457.640625 L 650.15625 442.179688 L 681.597656 456.738281 C 682.5 457.125 683.402344 457.382812 684.304688 457.382812 C 685.207031 457.382812 686.753906 456.996094 687.785156 456.351562 C 689.585938 455.191406 690.746094 453.132812 690.746094 450.941406 L 690.746094 376.070312 C 690.746094 373.878906 689.585938 371.816406 687.785156 370.65625 C 685.980469 369.496094 683.660156 369.367188 681.597656 370.269531 L 650.15625 384.832031 L 650.15625 369.367188 C 650.15625 365.761719 647.320312 362.925781 643.710938 362.925781 L 626.699219 362.925781 C 629.40625 358.671875 630.953125 353.648438 630.953125 348.105469 C 630.953125 332.898438 618.582031 320.398438 603.246094 320.398438 C 587.914062 320.398438 587.140625 324.265625 581.984375 330.320312 C 576.957031 324.265625 569.226562 320.398438 560.722656 320.398438 C 545.515625 320.398438 533.015625 332.769531 533.015625 348.105469 C 533.015625 363.441406 534.5625 358.542969 537.269531 362.925781 L 520.257812 362.925781 C 516.648438 362.925781 513.8125 365.761719 513.8125 369.367188 L 513.8125 457.898438 C 513.8125 461.507812 516.648438 464.34375 520.257812 464.34375 L 558.789062 464.34375 L 514.199219 603.132812 C 513.171875 606.480469 514.972656 610.089844 518.324219 611.25 Z M 677.730469 385.992188 L 677.730469 440.761719 L 650.027344 428.003906 L 650.027344 398.75 Z M 603.246094 333.15625 C 611.367188 333.15625 618.066406 339.859375 618.066406 347.976562 C 618.066406 356.09375 611.367188 362.796875 603.246094 362.796875 C 595.128906 362.796875 588.429688 356.222656 588.429688 347.976562 C 588.429688 339.730469 595 333.15625 603.246094 333.15625 Z M 546.03125 347.976562 C 546.03125 339.859375 552.601562 333.15625 560.851562 333.15625 C 569.097656 333.15625 575.671875 339.859375 575.671875 347.976562 C 575.671875 356.09375 569.097656 362.796875 560.851562 362.796875 C 552.601562 362.796875 546.03125 356.222656 546.03125 347.976562 Z M 526.957031 375.554688 L 637.140625 375.554688 L 637.140625 451.199219 L 527.214844 451.199219 L 527.214844 375.554688 Z M 814.328125 494.367188 C 800.285156 494.367188 788.8125 505.835938 788.8125 519.882812 C 788.8125 533.929688 800.285156 545.398438 814.328125 545.398438 C 828.375 545.398438 839.84375 533.929688 839.84375 519.882812 C 839.84375 505.835938 828.375 494.367188 814.328125 494.367188 Z M 814.328125 532.511719 C 807.371094 532.511719 801.699219 526.84375 801.699219 519.882812 C 801.699219 512.925781 807.371094 507.253906 814.328125 507.253906 C 821.289062 507.253906 826.957031 512.925781 826.957031 519.882812 C 826.957031 526.84375 821.289062 532.511719 814.328125 532.511719 Z M 913.300781 568.078125 L 901.054688 568.078125 C 903.246094 564.859375 904.792969 561.121094 905.695312 556.996094 L 918.710938 492.4375 C 920.386719 483.800781 918.453125 475.683594 912.914062 468.980469 C 912.398438 468.335938 911.882812 467.820312 911.367188 467.308594 L 911.367188 465.375 C 911.367188 444.238281 899.253906 425.941406 879.792969 417.691406 C 877.472656 416.664062 875.15625 415.761719 872.835938 414.988281 C 864.585938 411.894531 858.015625 409.316406 854.148438 402.746094 C 852.34375 399.523438 851.054688 395.914062 850.285156 391.792969 C 856.855469 385.21875 861.753906 376.84375 863.941406 367.4375 L 864.84375 367.4375 C 878.890625 367.4375 890.230469 355.964844 890.230469 341.921875 C 890.230469 327.875 888.042969 329.9375 884.304688 325.554688 C 888.683594 309.960938 889.199219 288.441406 880.308594 274.007812 C 867.164062 252.746094 848.351562 239.988281 824.125 236.121094 C 810.078125 233.929688 787.011719 239.859375 769.097656 249.78125 L 769.097656 216.277344 C 769.097656 206.609375 761.238281 198.75 751.570312 198.75 L 621.675781 198.75 C 612.011719 198.75 604.148438 206.609375 604.148438 216.277344 L 604.148438 301.84375 C 604.148438 311.507812 612.011719 319.367188 621.675781 319.367188 L 672.449219 319.367188 L 703.503906 346.558594 C 704.664062 347.589844 706.210938 348.105469 707.757812 348.105469 C 708.660156 348.105469 709.5625 347.976562 710.464844 347.589844 C 712.785156 346.558594 714.199219 344.238281 714.199219 341.664062 L 714.199219 319.238281 L 741.648438 319.238281 C 742.164062 322.332031 742.808594 325.039062 743.324219 327.488281 C 740.488281 331.609375 738.8125 336.507812 738.8125 341.921875 C 738.8125 355.964844 750.285156 367.4375 764.328125 367.4375 L 765.230469 367.4375 C 767.421875 376.84375 772.191406 385.21875 778.890625 391.792969 C 778.117188 395.914062 776.957031 399.523438 775.027344 402.746094 C 771.160156 409.445312 764.585938 411.894531 756.339844 414.988281 C 754.148438 415.890625 751.828125 416.664062 749.382812 417.691406 C 729.921875 425.941406 717.808594 444.238281 717.808594 465.375 L 717.808594 466.535156 C 717.035156 467.308594 716.261719 468.078125 715.617188 468.980469 C 710.078125 475.683594 708.144531 483.800781 709.820312 492.433594 L 722.835938 556.996094 C 723.609375 561.121094 725.285156 564.730469 727.472656 568.078125 L 715.230469 568.078125 C 708.015625 568.078125 702.085938 574.007812 702.085938 581.222656 L 702.085938 598.105469 C 702.085938 605.320312 708.015625 611.25 715.230469 611.25 L 913.042969 611.25 C 920.257812 611.25 926.1875 605.320312 926.1875 598.105469 L 926.1875 581.222656 C 926.1875 574.007812 920.257812 568.078125 913.042969 568.078125 Z M 865.488281 354.550781 L 865.488281 329.421875 C 868.324219 329.421875 870.773438 330.449219 872.835938 332.125 C 872.964844 332.253906 873.09375 332.382812 873.222656 332.511719 C 875.800781 334.832031 877.601562 338.183594 877.601562 342.050781 C 877.601562 348.878906 872.191406 354.421875 865.488281 354.550781 Z M 822.320312 248.878906 C 842.9375 252.230469 858.402344 262.667969 869.613281 280.835938 C 875.414062 290.246094 875.800781 305.578125 873.222656 317.820312 C 870.773438 316.921875 868.066406 316.535156 865.230469 316.535156 C 864.585938 312.667969 862.65625 309.1875 859.691406 306.351562 C 855.953125 302.875 851.183594 301.199219 846.03125 301.585938 C 827.34375 303.003906 809.949219 298.492188 795.773438 288.699219 C 789.199219 284.1875 780.4375 285.089844 774.898438 290.890625 C 770.902344 295.140625 764.070312 303.777344 764.070312 313.054688 L 764.070312 316.535156 C 760.851562 316.535156 757.628906 317.308594 754.792969 318.464844 C 754.40625 316.40625 754.019531 314.472656 753.761719 312.410156 C 753.761719 312.152344 753.761719 312.023438 753.761719 311.765625 C 751.957031 298.363281 752.214844 284.574219 756.984375 276.457031 C 765.488281 262.152344 803.890625 246.042969 822.449219 248.878906 Z M 708.015625 306.480469 C 704.40625 306.480469 701.570312 309.316406 701.570312 312.925781 L 701.570312 327.488281 L 679.40625 308.027344 C 678.246094 306.996094 676.699219 306.480469 675.15625 306.480469 L 621.933594 306.480469 C 619.355469 306.480469 617.292969 304.421875 617.292969 301.84375 L 617.292969 216.40625 C 617.292969 213.957031 619.355469 211.765625 621.933594 211.765625 L 751.828125 211.765625 C 754.277344 211.765625 756.46875 213.828125 756.46875 216.40625 L 756.46875 258.285156 C 751.957031 261.894531 748.222656 265.890625 745.902344 269.882812 C 739.84375 280.0625 739.070312 293.980469 740.230469 306.480469 Z M 751.828125 342.050781 C 751.828125 335.21875 757.242188 329.679688 763.941406 329.550781 L 763.941406 354.679688 C 757.242188 354.421875 751.828125 348.878906 751.828125 342.179688 Z M 776.957031 355.964844 L 776.957031 313.054688 C 776.957031 309.574219 779.664062 304.550781 784.304688 299.78125 C 784.949219 299.136719 785.851562 298.75 786.625 298.75 C 787.398438 298.75 787.914062 299.007812 788.429688 299.394531 C 805.179688 310.992188 825.414062 316.148438 846.933594 314.472656 C 848.480469 314.472656 849.640625 314.730469 850.800781 315.890625 C 851.957031 316.921875 852.472656 318.207031 852.472656 319.753906 L 852.472656 356.09375 C 852.472656 367.308594 847.578125 377.359375 839.84375 384.316406 C 839.457031 384.574219 839.199219 384.832031 838.8125 385.21875 C 832.242188 390.761719 823.867188 393.980469 814.585938 393.980469 C 805.308594 393.980469 796.804688 390.632812 790.230469 385.089844 C 789.972656 384.960938 789.84375 384.703125 789.585938 384.574219 C 781.726562 377.617188 776.699219 367.4375 776.699219 356.222656 Z M 814.714844 406.609375 C 823.609375 406.609375 831.984375 404.292969 839.199219 400.296875 C 840.230469 403.519531 841.519531 406.480469 843.066406 409.1875 C 843.195312 409.445312 843.453125 409.703125 843.582031 409.960938 C 836.238281 417.050781 825.800781 421.171875 814.714844 421.171875 C 803.632812 421.171875 793.195312 417.050781 785.851562 409.960938 C 785.980469 409.703125 786.238281 409.445312 786.367188 409.1875 C 787.914062 406.480469 789.199219 403.519531 790.230469 400.296875 C 797.578125 404.292969 805.953125 406.609375 814.84375 406.609375 Z M 754.535156 429.679688 C 756.726562 428.777344 758.917969 428.003906 760.980469 427.101562 C 766.519531 425.039062 772.0625 422.847656 776.957031 419.367188 C 786.753906 428.648438 800.285156 434.058594 814.585938 434.058594 C 828.890625 434.058594 842.550781 428.648438 852.214844 419.367188 C 857.113281 422.847656 862.785156 425.039062 868.195312 427.101562 C 870.386719 427.875 872.578125 428.777344 874.640625 429.679688 C 887.65625 435.21875 896.03125 446.171875 897.964844 459.574219 C 895.773438 459.058594 893.324219 458.671875 890.875 458.671875 L 737.398438 458.671875 C 735.207031 458.671875 733.144531 458.929688 731.082031 459.316406 C 733.015625 445.914062 741.390625 435.089844 754.277344 429.550781 Z M 735.59375 554.550781 L 722.578125 489.988281 C 721.675781 485.21875 722.578125 480.964844 725.800781 477.230469 C 728.890625 473.492188 732.757812 471.6875 737.65625 471.6875 L 891.132812 471.6875 C 895.902344 471.6875 899.898438 473.621094 902.988281 477.359375 C 906.082031 481.09375 907.113281 485.347656 906.210938 490.117188 L 893.195312 554.679688 C 891.648438 562.667969 884.820312 568.207031 876.570312 568.207031 L 752.34375 568.207031 C 744.226562 568.207031 737.398438 562.667969 735.722656 554.679688 Z M 913.554688 598.105469 C 913.554688 598.105469 913.429688 598.363281 913.300781 598.363281 L 715.488281 598.363281 C 715.359375 598.363281 715.230469 598.234375 715.230469 598.105469 L 715.230469 581.222656 C 715.230469 581.222656 715.230469 580.964844 715.488281 580.964844 L 913.300781 580.964844 C 913.300781 580.964844 913.554688 581.09375 913.554688 581.222656 Z M 709.046875 245.398438 L 685.980469 227.359375 C 680.695312 223.234375 673.738281 222.460938 667.679688 225.425781 C 661.625 228.390625 657.886719 234.316406 657.886719 241.019531 L 657.886719 276.972656 C 657.886719 283.671875 661.625 289.601562 667.679688 292.5625 C 670.128906 293.722656 672.707031 294.367188 675.285156 294.367188 C 679.019531 294.367188 682.886719 293.078125 685.980469 290.632812 L 709.046875 272.589844 C 713.429688 269.238281 715.746094 264.34375 715.746094 258.929688 C 715.746094 253.519531 713.429688 248.621094 709.046875 245.269531 Z M 701.183594 262.667969 L 678.117188 280.707031 C 676.699219 281.867188 675.027344 281.996094 673.351562 281.222656 C 671.675781 280.449219 670.773438 279.035156 670.773438 277.101562 L 670.773438 241.148438 C 670.773438 239.34375 671.675781 237.925781 673.351562 237.023438 C 673.996094 236.636719 674.769531 236.507812 675.414062 236.507812 C 676.3125 236.507812 677.34375 236.894531 678.117188 237.539062 L 701.183594 255.578125 C 702.34375 256.480469 702.859375 257.640625 702.859375 259.1875 C 702.859375 260.734375 702.34375 261.765625 701.058594 262.796875 Z M 701.183594 262.667969 " fill-opacity="1" fill-rule="nonzero"/></g><g clip-path="url(#11899427bf)"><g clip-path="url(#dd44b3334a)"><g mask="url(#10e4cf4543)"><g transform="matrix(1, 0, 0, 1, 818, 305)"><g clip-path="url(#3c44ef31ff)"><g clip-path="url(#01e2480efd)"><g clip-path="url(#44bb8452a7)"><rect x="-1134.8" width="2073.6" fill="#000000" height="1166.39999" y="-483.199998" fill-opacity="1"/></g></g></g></g></g></g></g></svg>