<svg xmlns="http://www.w3.org/2000/svg" xmlns:xlink="http://www.w3.org/1999/xlink" width="1200" zoomAndPan="magnify" viewBox="0 0 900 187.499995" height="250" preserveAspectRatio="xMidYMid meet" version="1.0"><defs><g/><clipPath id="88aec32067"><path d="M 6.730469 10.679688 L 228.101562 10.679688 L 228.101562 176.261719 L 6.730469 176.261719 Z M 6.730469 10.679688 " clip-rule="nonzero"/></clipPath><clipPath id="72fadb12f5"><path d="M 236 4 L 898.800781 4 L 898.800781 181 L 236 181 Z M 236 4 " clip-rule="nonzero"/></clipPath><clipPath id="59a72c3ee0"><rect x="0" width="663" y="0" height="177"/></clipPath></defs><g clip-path="url(#88aec32067)"><path fill="#ff9a6c" d="M 98.417969 88.023438 L 112.125 74.441406 C 115.023438 71.570312 119.699219 71.589844 122.574219 74.484375 L 136.449219 88.445312 C 139.332031 91.347656 139.3125 96.035156 136.414062 98.914062 L 122.707031 112.492188 C 119.804688 115.367188 115.128906 115.347656 112.253906 112.449219 L 98.375 98.488281 C 95.492188 95.589844 95.511719 90.898438 98.417969 88.023438 Z M 217.347656 67.570312 L 170.882812 20.816406 C 157.515625 7.371094 135.78125 7.285156 122.308594 20.625 L 152.550781 51.054688 L 188.839844 87.566406 L 188.964844 87.6875 L 188.957031 87.699219 C 192.179688 91.078125 192.125 96.386719 188.789062 99.691406 L 152.222656 135.925781 L 152.097656 136.046875 C 149.132812 138.871094 144.863281 134.253906 147.773438 131.371094 L 168.113281 111.21875 C 177.796875 101.625 177.859375 85.996094 168.246094 76.328125 L 114.914062 22.664062 C 100.535156 8.195312 77.148438 8.101562 62.65625 22.464844 L 17.679688 67.027344 C 3.15625 81.414062 3.066406 104.859375 17.476562 119.363281 L 63.945312 166.117188 C 77.316406 179.566406 99.042969 179.648438 112.515625 166.304688 L 82.28125 135.882812 L 45.988281 99.367188 L 45.867188 99.242188 L 45.871094 99.234375 C 42.648438 95.855469 42.703125 90.542969 46.035156 87.242188 L 82.605469 51.011719 L 82.730469 50.886719 C 85.699219 48.0625 89.96875 52.675781 87.054688 55.5625 L 66.714844 75.714844 C 57.035156 85.308594 56.972656 100.9375 66.578125 110.605469 L 119.914062 164.269531 C 134.296875 178.738281 157.675781 178.832031 172.167969 164.472656 L 217.144531 119.910156 C 231.671875 105.519531 231.761719 82.074219 217.347656 67.570312 " fill-opacity="1" fill-rule="nonzero"/></g><g clip-path="url(#72fadb12f5)"><g transform="matrix(1, 0, 0, 1, 236, 4)"><g clip-path="url(#59a72c3ee0)"><g fill="#000000" fill-opacity="1"><g transform="translate(0.556595, 147.25332)"><g><path d="M 40.796875 -18.203125 L 66.328125 -77.78125 L 79.6875 -77.78125 L 45.640625 0 L 35.65625 0 L 1.765625 -77.78125 L 15.265625 -77.78125 Z M 40.796875 -18.203125 "/></g></g></g><g fill="#000000" fill-opacity="1"><g transform="translate(81.993319, 147.25332)"><g><path d="M 45.9375 1.46875 C 37.914062 1.46875 30.96875 -0.117188 25.09375 -3.296875 C 19.226562 -6.484375 14.703125 -11.007812 11.515625 -16.875 C 8.335938 -22.75 6.75 -29.644531 6.75 -37.5625 L 6.75 -40.203125 C 6.75 -48.234375 8.335938 -55.15625 11.515625 -60.96875 C 14.703125 -66.789062 19.226562 -71.289062 25.09375 -74.46875 C 30.96875 -77.65625 37.914062 -79.25 45.9375 -79.25 C 53.957031 -79.25 60.898438 -77.65625 66.765625 -74.46875 C 72.640625 -71.289062 77.164062 -66.789062 80.34375 -60.96875 C 83.519531 -55.15625 85.109375 -48.234375 85.109375 -40.203125 L 85.109375 -37.5625 C 85.109375 -29.644531 83.519531 -22.75 80.34375 -16.875 C 77.164062 -11.007812 72.640625 -6.484375 66.765625 -3.296875 C 60.898438 -0.117188 53.957031 1.46875 45.9375 1.46875 Z M 45.9375 -9.53125 C 54.445312 -9.53125 61 -11.953125 65.59375 -16.796875 C 70.195312 -21.640625 72.5 -29.003906 72.5 -38.890625 C 72.5 -48.765625 70.195312 -56.125 65.59375 -60.96875 C 61 -65.8125 54.445312 -68.234375 45.9375 -68.234375 C 37.425781 -68.234375 30.867188 -65.8125 26.265625 -60.96875 C 21.671875 -56.125 19.375 -48.765625 19.375 -38.890625 C 19.375 -29.003906 21.671875 -21.640625 26.265625 -16.796875 C 30.867188 -11.953125 37.425781 -9.53125 45.9375 -9.53125 Z M 45.9375 -9.53125 "/></g></g></g><g fill="#000000" fill-opacity="1"><g transform="translate(173.84806, 147.25332)"><g><path d="M 50.921875 -39.765625 L 81.15625 0 L 65.59375 0 L 42.125 -31.703125 L 18.484375 0 L 2.9375 0 L 33.171875 -39.625 L 4.40625 -77.78125 L 19.671875 -77.78125 L 42.125 -47.40625 L 64.71875 -77.78125 L 79.828125 -77.78125 Z M 50.921875 -39.765625 "/></g></g></g><g fill="#ff9a6c" fill-opacity="1"><g transform="translate(257.926842, 147.25332)"><g><path d="M 24.796875 -107.125 L 24.796875 0 L 12.328125 0 L 12.328125 -107.125 Z M 24.796875 -107.125 "/></g></g></g><g fill="#ff9a6c" fill-opacity="1"><g transform="translate(295.050247, 147.25332)"><g><path d="M 27.15625 -99.9375 C 27.15625 -102.476562 26.347656 -104.554688 24.734375 -106.171875 C 23.117188 -107.785156 20.941406 -108.59375 18.203125 -108.59375 C 15.460938 -108.59375 13.285156 -107.785156 11.671875 -106.171875 C 10.054688 -104.554688 9.25 -102.476562 9.25 -99.9375 C 9.25 -97.289062 10.054688 -95.160156 11.671875 -93.546875 C 13.285156 -91.929688 15.460938 -91.125 18.203125 -91.125 C 20.941406 -91.125 23.117188 -91.929688 24.734375 -93.546875 C 26.347656 -95.160156 27.15625 -97.289062 27.15625 -99.9375 Z M 24.5 0 L 12.03125 0 L 12.03125 -77.78125 L 24.5 -77.78125 Z M 24.5 0 "/></g></g></g><g fill="#ff9a6c" fill-opacity="1"><g transform="translate(331.586717, 147.25332)"><g><path d="M 52.828125 -79.25 C 62.316406 -79.25 69.75 -76.335938 75.125 -70.515625 C 80.507812 -64.691406 83.203125 -55.710938 83.203125 -43.578125 L 83.203125 0 L 70.734375 0 L 70.734375 -41.828125 C 70.734375 -51.703125 69.019531 -58.570312 65.59375 -62.4375 C 62.175781 -66.300781 56.796875 -68.234375 49.453125 -68.234375 C 41.828125 -68.234375 35.757812 -65.664062 31.25 -60.53125 C 26.75 -55.394531 24.5 -47.054688 24.5 -35.515625 L 24.5 0 L 12.03125 0 L 12.03125 -77.78125 L 20.109375 -77.78125 L 22.453125 -55.90625 C 24.703125 -63.925781 28.46875 -69.820312 33.75 -73.59375 C 39.03125 -77.363281 45.390625 -79.25 52.828125 -79.25 Z M 52.828125 -79.25 "/></g></g></g><g fill="#ff9a6c" fill-opacity="1"><g transform="translate(425.055527, 147.25332)"><g><path d="M 84.828125 0 L 70.140625 0 L 44.171875 -40.65625 L 24.5 -20.25 L 24.5 0 L 12.03125 0 L 12.03125 -107.125 L 24.5 -107.125 L 24.5 -34.34375 L 65.890625 -77.78125 L 82.765625 -77.78125 L 53.859375 -47.6875 Z M 84.828125 0 "/></g></g></g><g fill="#000000" fill-opacity="1"><g transform="translate(512.366411, 147.25332)"><g><path d="M 83.640625 -42.84375 C 83.640625 -40.007812 83.445312 -37.46875 83.0625 -35.21875 L 19.515625 -35.21875 C 20.203125 -26.507812 22.796875 -20.050781 27.296875 -15.84375 C 31.796875 -11.632812 38.007812 -9.53125 45.9375 -9.53125 C 50.925781 -9.53125 54.957031 -10.238281 58.03125 -11.65625 C 61.113281 -13.082031 63.535156 -14.96875 65.296875 -17.3125 C 67.054688 -19.664062 68.425781 -22.210938 69.40625 -24.953125 L 82.1875 -24.953125 C 81.300781 -20.347656 79.4375 -16.015625 76.59375 -11.953125 C 73.757812 -7.898438 69.820312 -4.648438 64.78125 -2.203125 C 59.75 0.242188 53.367188 1.46875 45.640625 1.46875 C 37.710938 1.46875 30.835938 -0.117188 25.015625 -3.296875 C 19.203125 -6.484375 14.703125 -11.007812 11.515625 -16.875 C 8.335938 -22.75 6.75 -29.644531 6.75 -37.5625 L 6.75 -40.203125 C 6.75 -48.234375 8.335938 -55.15625 11.515625 -60.96875 C 14.703125 -66.789062 19.253906 -71.289062 25.171875 -74.46875 C 31.085938 -77.65625 38.054688 -79.25 46.078125 -79.25 C 53.804688 -79.25 60.457031 -77.726562 66.03125 -74.6875 C 71.613281 -71.65625 75.941406 -67.425781 79.015625 -62 C 82.097656 -56.570312 83.640625 -50.1875 83.640625 -42.84375 Z M 46.078125 -68.234375 C 38.347656 -68.234375 32.234375 -66.328125 27.734375 -62.515625 C 23.234375 -58.703125 20.546875 -52.929688 19.671875 -45.203125 L 71.03125 -45.203125 C 70.4375 -52.828125 68.007812 -58.570312 63.75 -62.4375 C 59.5 -66.300781 53.609375 -68.234375 46.078125 -68.234375 Z M 46.078125 -68.234375 "/></g></g></g><g fill="#000000" fill-opacity="1"><g transform="translate(602.753838, 147.25332)"><g><path d="M 48.578125 -79.25 C 50.828125 -79.25 52.707031 -79.125 54.21875 -78.875 C 55.738281 -78.632812 56.988281 -78.367188 57.96875 -78.078125 L 57.96875 -65.75 C 56.5 -65.9375 54.957031 -66.078125 53.34375 -66.171875 C 51.726562 -66.273438 49.84375 -66.328125 47.6875 -66.328125 C 40.351562 -66.328125 34.65625 -63.660156 30.59375 -58.328125 C 26.53125 -52.992188 24.5 -44.117188 24.5 -31.703125 L 24.5 0 L 12.03125 0 L 12.03125 -77.78125 L 20.109375 -77.78125 L 22.453125 -55.171875 C 24.609375 -63.679688 28.007812 -69.820312 32.65625 -73.59375 C 37.300781 -77.363281 42.609375 -79.25 48.578125 -79.25 Z M 48.578125 -79.25 "/></g></g></g></g></g></g></svg>