<svg xmlns="http://www.w3.org/2000/svg" xmlns:xlink="http://www.w3.org/1999/xlink" width="632" zoomAndPan="magnify" viewBox="0 0 474 103.5" height="138" preserveAspectRatio="xMidYMid meet" version="1.0"><defs><clipPath id="32ef9e69cc"><path d="M 115 65 L 275 65 L 275 101.679688 L 115 101.679688 Z M 115 65 " clip-rule="nonzero"/></clipPath><clipPath id="08a74fe9e0"><path d="M 356 2 L 398.617188 2 L 398.617188 60 L 356 60 Z M 356 2 " clip-rule="nonzero"/></clipPath><clipPath id="0b3bbc8cdd"><path d="M 202 1.664062 L 252 1.664062 L 252 61 L 202 61 Z M 202 1.664062 " clip-rule="nonzero"/></clipPath><clipPath id="9d9603dae6"><path d="M 68.710938 1.664062 L 118 1.664062 L 118 61 L 68.710938 61 Z M 68.710938 1.664062 " clip-rule="nonzero"/></clipPath></defs><g clip-path="url(#32ef9e69cc)"><path fill="#ff9900" d="M 273.328125 79.800781 C 254.183594 93.976562 226.429688 101.539062 202.535156 101.539062 C 169.035156 101.539062 138.871094 89.09375 116.054688 68.390625 C 114.261719 66.761719 115.867188 64.542969 118.019531 65.808594 C 142.644531 80.203125 173.09375 88.863281 204.542969 88.863281 C 225.757812 88.863281 249.089844 84.453125 270.546875 75.304688 C 273.789062 73.921875 276.5 77.4375 273.328125 79.800781 " fill-opacity="1" fill-rule="nonzero"/></g><path fill="#ff9900" d="M 281.289062 70.652344 C 278.851562 67.511719 265.113281 69.167969 258.945312 69.902344 C 257.066406 70.132812 256.777344 68.488281 258.472656 67.308594 C 269.414062 59.570312 287.371094 61.804688 289.464844 64.398438 C 291.558594 67.003906 288.917969 85.085938 278.636719 93.714844 C 277.058594 95.042969 275.550781 94.335938 276.253906 92.578125 C 278.566406 86.785156 283.742188 73.804688 281.289062 70.652344 " fill-opacity="1" fill-rule="nonzero"/><path fill="#221f1f" d="M 259.375 12.691406 L 259.375 5.167969 C 259.375 4.03125 260.234375 3.269531 261.269531 3.269531 L 294.785156 3.269531 C 295.859375 3.269531 296.722656 4.046875 296.722656 5.167969 L 296.722656 11.609375 C 296.707031 12.691406 295.804688 14.101562 294.199219 16.335938 L 276.828125 41.246094 C 283.28125 41.085938 290.09375 42.050781 295.945312 45.367188 C 297.265625 46.113281 297.625 47.210938 297.726562 48.289062 L 297.726562 56.316406 C 297.726562 57.410156 296.519531 58.691406 295.257812 58.03125 C 284.945312 52.597656 271.25 52.007812 259.847656 58.085938 C 258.6875 58.722656 257.46875 57.453125 257.46875 56.359375 L 257.46875 48.738281 C 257.46875 47.511719 257.480469 45.421875 258.699219 43.566406 L 278.824219 14.578125 L 261.3125 14.578125 C 260.234375 14.578125 259.375 13.8125 259.375 12.691406 " fill-opacity="1" fill-rule="nonzero"/><path fill="#221f1f" d="M 137.109375 59.613281 L 126.910156 59.613281 C 125.933594 59.542969 125.160156 58.808594 125.089844 57.871094 L 125.089844 5.300781 C 125.089844 4.246094 125.964844 3.410156 127.054688 3.410156 L 136.5625 3.410156 C 137.550781 3.457031 138.339844 4.21875 138.414062 5.167969 L 138.414062 12.042969 L 138.597656 12.042969 C 141.082031 5.398438 145.742188 2.300781 152.023438 2.300781 C 158.40625 2.300781 162.394531 5.398438 165.261719 12.042969 C 167.726562 5.398438 173.335938 2.300781 179.34375 2.300781 C 183.621094 2.300781 188.292969 4.074219 191.148438 8.050781 C 194.375 12.472656 193.714844 18.898438 193.714844 24.53125 L 193.703125 57.714844 C 193.703125 58.765625 192.828125 59.613281 191.738281 59.613281 L 181.554688 59.613281 C 180.535156 59.542969 179.71875 58.722656 179.71875 57.714844 L 179.71875 29.847656 C 179.71875 27.628906 179.917969 22.097656 179.429688 19.996094 C 178.671875 16.464844 176.390625 15.472656 173.4375 15.472656 C 170.96875 15.472656 168.386719 17.128906 167.339844 19.777344 C 166.292969 22.429688 166.394531 26.867188 166.394531 29.847656 L 166.394531 57.714844 C 166.394531 58.765625 165.519531 59.613281 164.429688 59.613281 L 154.246094 59.613281 C 153.214844 59.542969 152.410156 58.722656 152.410156 57.714844 L 152.394531 29.847656 C 152.394531 23.984375 153.355469 15.355469 146.113281 15.355469 C 138.785156 15.355469 139.074219 23.769531 139.074219 29.847656 L 139.074219 57.714844 C 139.074219 58.765625 138.199219 59.613281 137.109375 59.613281 " fill-opacity="1" fill-rule="nonzero"/><path fill="#221f1f" d="M 325.578125 2.300781 C 340.710938 2.300781 348.898438 15.355469 348.898438 31.953125 C 348.898438 47.988281 339.847656 60.710938 325.578125 60.710938 C 310.71875 60.710938 302.628906 47.65625 302.628906 31.390625 C 302.628906 15.023438 310.820312 2.300781 325.578125 2.300781 M 325.664062 13.035156 C 318.148438 13.035156 317.675781 23.324219 317.675781 29.734375 C 317.675781 36.160156 317.574219 49.875 325.578125 49.875 C 333.480469 49.875 333.855469 38.8125 333.855469 32.066406 C 333.855469 27.628906 333.667969 22.328125 332.332031 18.121094 C 331.1875 14.460938 328.90625 13.035156 325.664062 13.035156 " fill-opacity="1" fill-rule="nonzero"/><g clip-path="url(#08a74fe9e0)"><path fill="#221f1f" d="M 368.519531 59.613281 L 358.363281 59.613281 C 357.347656 59.542969 356.527344 58.722656 356.527344 57.714844 L 356.515625 5.125 C 356.601562 4.160156 357.445312 3.410156 358.480469 3.410156 L 367.929688 3.410156 C 368.820312 3.457031 369.550781 4.058594 369.753906 4.882812 L 369.753906 12.921875 L 369.9375 12.921875 C 372.792969 5.730469 376.792969 2.300781 383.835938 2.300781 C 388.410156 2.300781 392.871094 3.960938 395.738281 8.496094 C 398.40625 12.703125 398.40625 19.777344 398.40625 24.863281 L 398.40625 57.957031 C 398.292969 58.878906 397.445312 59.613281 396.441406 59.613281 L 386.21875 59.613281 C 385.285156 59.542969 384.511719 58.851562 384.410156 57.957031 L 384.410156 29.402344 C 384.410156 23.652344 385.070312 15.242188 378.027344 15.242188 C 375.546875 15.242188 373.265625 16.910156 372.132812 19.445312 C 370.699219 22.660156 370.511719 25.859375 370.511719 29.402344 L 370.511719 57.714844 C 370.496094 58.765625 369.609375 59.613281 368.519531 59.613281 " fill-opacity="1" fill-rule="nonzero"/></g><g clip-path="url(#0b3bbc8cdd)"><path fill="#221f1f" d="M 232.65625 34.503906 L 232.65625 32.285156 C 225.285156 32.285156 217.496094 33.867188 217.496094 42.601562 C 217.496094 47.023438 219.777344 50.019531 223.691406 50.019531 C 226.558594 50.019531 229.128906 48.246094 230.746094 45.367188 C 232.753906 41.820312 232.65625 38.492188 232.65625 34.503906 M 242.9375 59.46875 C 242.265625 60.074219 241.289062 60.117188 240.527344 59.714844 C 237.144531 56.890625 236.542969 55.582031 234.675781 52.886719 C 229.082031 58.621094 225.125 60.335938 217.867188 60.335938 C 209.292969 60.335938 202.609375 55.019531 202.609375 44.371094 C 202.609375 36.058594 207.097656 30.398438 213.480469 27.628906 C 219.015625 25.179688 226.746094 24.75 232.65625 24.070312 L 232.65625 22.746094 C 232.65625 20.3125 232.839844 17.429688 231.421875 15.328125 C 230.175781 13.4375 227.792969 12.660156 225.699219 12.660156 C 221.8125 12.660156 218.339844 14.664062 217.496094 18.8125 C 217.324219 19.734375 216.648438 20.644531 215.730469 20.6875 L 205.835938 19.621094 C 205.003906 19.433594 204.085938 18.753906 204.316406 17.472656 C 206.59375 5.429688 217.421875 1.796875 227.117188 1.796875 C 232.082031 1.796875 238.5625 3.125 242.480469 6.898438 C 247.441406 11.550781 246.96875 17.761719 246.96875 24.519531 L 246.96875 40.480469 C 246.96875 45.28125 248.949219 47.382812 250.8125 49.976562 C 251.472656 50.898438 251.617188 52.007812 250.785156 52.699219 C 248.703125 54.441406 245.003906 57.683594 242.96875 59.5 L 242.9375 59.46875 " fill-opacity="1" fill-rule="nonzero"/></g><g clip-path="url(#9d9603dae6)"><path fill="#221f1f" d="M 98.972656 34.503906 L 98.972656 32.285156 C 91.601562 32.285156 83.8125 33.867188 83.8125 42.601562 C 83.8125 47.023438 86.09375 50.019531 90.007812 50.019531 C 92.875 50.019531 95.445312 48.246094 97.0625 45.367188 C 99.070312 41.820312 98.972656 38.492188 98.972656 34.503906 M 109.253906 59.46875 C 108.582031 60.074219 107.605469 60.117188 106.84375 59.714844 C 103.460938 56.890625 102.859375 55.582031 100.992188 52.886719 C 95.402344 58.621094 91.441406 60.335938 84.183594 60.335938 C 75.609375 60.335938 68.925781 55.019531 68.925781 44.371094 C 68.925781 36.058594 73.414062 30.398438 79.796875 27.628906 C 85.332031 25.179688 93.0625 24.75 98.972656 24.070312 L 98.972656 22.746094 C 98.972656 20.3125 99.15625 17.429688 97.738281 15.328125 C 96.492188 13.4375 94.109375 12.660156 92.015625 12.660156 C 88.128906 12.660156 84.65625 14.664062 83.8125 18.8125 C 83.640625 19.734375 82.964844 20.644531 82.046875 20.6875 L 72.152344 19.621094 C 71.320312 19.433594 70.402344 18.753906 70.632812 17.472656 C 72.910156 5.429688 83.742188 1.796875 93.4375 1.796875 C 98.398438 1.796875 104.878906 3.125 108.796875 6.898438 C 113.757812 11.550781 113.285156 17.761719 113.285156 24.519531 L 113.285156 40.480469 C 113.285156 45.28125 115.265625 47.382812 117.128906 49.976562 C 117.789062 50.898438 117.933594 52.007812 117.101562 52.699219 C 115.019531 54.441406 111.320312 57.683594 109.285156 59.5 L 109.253906 59.46875 " fill-opacity="1" fill-rule="nonzero"/></g></svg>