<svg xmlns="http://www.w3.org/2000/svg" xmlns:xlink="http://www.w3.org/1999/xlink" width="632" zoomAndPan="magnify" viewBox="0 0 474 103.5" height="138" preserveAspectRatio="xMidYMid meet" version="1.0"><defs><clipPath id="d88dc4b622"><path d="M 48.320312 22.601562 L 425.996094 22.601562 L 425.996094 80.074219 L 48.320312 80.074219 Z M 48.320312 22.601562 " clip-rule="nonzero"/></clipPath></defs><g clip-path="url(#d88dc4b622)"><path fill="#1428a0" d="M 406.898438 47.84375 L 406.898438 55.667969 L 412.429688 55.667969 L 412.429688 63.429688 C 412.449219 64.121094 412.410156 64.871094 412.289062 65.46875 C 412.070312 66.917969 410.6875 69.382812 406.757812 69.382812 C 402.851562 69.382812 401.492188 66.917969 401.257812 65.46875 C 401.160156 64.871094 401.117188 64.121094 401.117188 63.429688 L 401.117188 38.914062 C 401.117188 38.046875 401.175781 37.097656 401.359375 36.378906 C 401.628906 35.070312 402.792969 32.496094 406.726562 32.496094 C 410.859375 32.496094 411.890625 35.210938 412.125 36.378906 C 412.28125 37.152344 412.289062 38.449219 412.289062 38.449219 L 412.289062 41.425781 L 425.886719 41.425781 L 425.886719 39.664062 C 425.886719 39.664062 425.949219 37.828125 425.785156 36.113281 C 424.761719 26.050781 416.417969 22.867188 406.847656 22.867188 C 397.261719 22.867188 389.085938 26.082031 387.894531 36.113281 C 387.789062 37.03125 387.625 38.683594 387.625 39.664062 L 387.625 62.214844 C 387.625 63.199219 387.65625 63.960938 387.839844 65.753906 C 388.726562 75.539062 397.261719 79.007812 406.808594 79.007812 C 416.417969 79.007812 424.894531 75.539062 425.796875 65.753906 C 425.957031 63.960938 425.972656 63.199219 425.996094 62.214844 L 425.996094 47.84375 Z M 313.140625 24.3125 L 299.484375 24.3125 L 299.484375 63.996094 C 299.507812 64.6875 299.484375 65.460938 299.363281 66.03125 C 299.082031 67.363281 297.945312 69.929688 294.175781 69.929688 C 290.457031 69.929688 289.292969 67.363281 289.027344 66.03125 C 288.890625 65.460938 288.875 64.6875 288.890625 63.996094 L 288.890625 24.3125 L 275.242188 24.3125 L 275.242188 62.761719 C 275.222656 63.753906 275.300781 65.777344 275.359375 66.308594 C 276.304688 76.328125 284.25 79.582031 294.175781 79.582031 C 304.121094 79.582031 312.066406 76.328125 313.023438 66.308594 C 313.101562 65.777344 313.199219 63.753906 313.140625 62.761719 Z M 187.675781 24.3125 L 180.863281 66.242188 L 174.058594 24.3125 L 152.03125 24.3125 L 150.863281 77.953125 L 164.355469 77.953125 L 164.722656 28.296875 L 174.007812 77.953125 L 187.699219 77.953125 L 196.988281 28.296875 L 197.355469 77.953125 L 210.886719 77.953125 L 209.675781 24.3125 Z M 106.125 24.3125 L 96.121094 77.953125 L 110.707031 77.953125 L 118.242188 28.296875 L 125.597656 77.953125 L 140.082031 77.953125 L 130.125 24.3125 Z M 360.863281 67.5 L 348.148438 24.3125 L 328.109375 24.3125 L 328.109375 77.394531 L 341.367188 77.394531 L 340.597656 32.824219 L 354.25 77.394531 L 373.464844 77.394531 L 373.464844 24.3125 L 360.125 24.3125 Z M 238.261719 38.273438 C 238.023438 37.210938 238.089844 36.085938 238.214844 35.5 C 238.601562 33.78125 239.761719 31.910156 243.109375 31.910156 C 246.226562 31.910156 248.054688 33.839844 248.054688 36.738281 L 248.054688 40.019531 L 261.367188 40.019531 L 261.367188 36.28125 C 261.367188 24.722656 250.9375 22.90625 243.386719 22.90625 C 233.875 22.90625 226.109375 26.019531 224.691406 34.71875 C 224.316406 37.085938 224.222656 39.183594 224.820312 41.867188 C 227.132812 52.710938 246.132812 55.855469 248.890625 62.710938 C 249.378906 64.011719 249.238281 65.667969 248.988281 66.644531 C 248.578125 68.429688 247.367188 70.222656 243.785156 70.222656 C 240.425781 70.222656 238.402344 68.304688 238.402344 65.414062 L 238.398438 60.265625 L 224.070312 60.265625 L 224.070312 64.355469 C 224.070312 76.214844 233.421875 79.792969 243.488281 79.792969 C 253.132812 79.792969 261.097656 76.515625 262.375 67.644531 C 262.984375 63.058594 262.523438 60.070312 262.277344 58.945312 C 260.046875 47.824219 239.796875 44.480469 238.261719 38.273438 M 62.671875 38.140625 C 62.410156 37.058594 62.472656 35.917969 62.617188 35.324219 C 62.984375 33.613281 64.152344 31.707031 67.558594 31.707031 C 70.714844 31.707031 72.574219 33.65625 72.574219 36.578125 L 72.574219 39.898438 L 86.042969 39.898438 L 86.042969 36.132812 C 86.042969 24.460938 75.453125 22.601562 67.820312 22.601562 C 58.230469 22.601562 50.394531 25.765625 48.960938 34.523438 C 48.566406 36.929688 48.5 39.042969 49.066406 41.753906 C 51.40625 52.722656 70.59375 55.894531 73.386719 62.832031 C 73.90625 64.121094 73.75 65.777344 73.492188 66.792969 C 73.046875 68.597656 71.828125 70.417969 68.21875 70.417969 C 64.84375 70.417969 62.828125 68.464844 62.828125 65.53125 L 62.808594 60.371094 L 48.320312 60.371094 L 48.320312 64.472656 C 48.320312 76.464844 57.800781 80.070312 67.949219 80.070312 C 77.703125 80.070312 85.714844 76.769531 87.019531 67.792969 C 87.671875 63.164062 87.183594 60.152344 86.964844 59.011719 C 84.683594 47.753906 64.207031 44.417969 62.671875 38.140625 " fill-opacity="1" fill-rule="nonzero"/></g></svg>